<?xml version="1.0" encoding="utf-8"?>
<!DOCTYPE svg PUBLIC "-//W3C//DTD SVG 1.1//EN" "http://www.w3.org/Graphics/SVG/1.1/DTD/svg11.dtd">
<svg version="1.1" id="Layer_1" xmlns="http://www.w3.org/2000/svg" xmlns:xlink="http://www.w3.org/1999/xlink" x="0px" y="0px"
	 width="236px" height="133px" viewBox="-54 -2.5 236 133" enable-background="new -54 -2.5 236 133" xml:space="preserve">
<g transform="matrix(.05899 0 0 .05899 19.999 24.15)">
	<g>
		
			<linearGradient id="SVGID_1_" gradientUnits="userSpaceOnUse" x1="36623.0312" y1="-25638.6094" x2="36623.125" y2="-25561.375" gradientTransform="matrix(0.118 0 0 -0.118 -3571.7988 -5425.3076)">
			<stop  offset="0" style="stop-color:#289BF7"/>
			<stop  offset="1" style="stop-color:#71B9F1"/>
		</linearGradient>
		<path fill="url(#SVGID_1_)" d="M-1178.19-451.598c-28.913,0-52.172,23.442-52.172,52.603V619.724l3952.537,6.316v-764.927
			c0-29.136-23.276-52.661-52.213-52.661H475.17c-53.182,4.818-60.027-2.351-86.308-37.712
			c-37.273-50.26-93.551-135.31-130.244-184.353c-29.434-42.943-34.219-37.985-83.055-37.985H-1178.19z"/>
		
			<linearGradient id="SVGID_2_" gradientUnits="userSpaceOnUse" x1="36671.9023" y1="-61059.5508" x2="36662.8203" y2="-60127.4414" gradientTransform="matrix(0.118 0 0 -0.118 -3571.7988 -5425.3076)">
			<stop  offset="0" style="stop-color:#93CFFF"/>
			<stop  offset="1" style="stop-color:#CDE8FE"/>
		</linearGradient>
		<path fill="url(#SVGID_2_)" d="M-1193.677-61.552h3879.233c33.556,0,60.689,27.224,60.689,60.814v1742.715
			c0,33.639-27.133,60.872-60.689,60.872h-3879.233c-33.556,0-60.756-27.233-60.756-60.872V-0.738
			C-1254.433-34.328-1227.234-61.552-1193.677-61.552z"/>
	</g>
	
		<linearGradient id="SVGID_3_" gradientUnits="userSpaceOnUse" x1="36633.4297" y1="-59550.457" x2="36628.5508" y2="-58722.75" gradientTransform="matrix(0.118 0 0 -0.118 -3571.7988 -5425.3076)">
		<stop  offset="0" style="stop-color:#289BF7"/>
		<stop  offset="1" style="stop-color:#71B9F1"/>
	</linearGradient>
	<path fill="url(#SVGID_3_)" d="M113.905,1647.101h1264.093c53.803,0,97.871-44.4,97.871-98.782V194.682
		c0-54.167-44.069-98.741-97.871-98.741H113.905c-53.919,0-97.946,44.574-97.946,98.741v1353.638
		C15.959,1602.702,59.986,1647.101,113.905,1647.101 M1237.118,216.791c0-16.422,13.244-29.633,29.368-29.633h91.779
		c16.124,0,29.269,13.211,29.269,29.633v95.446c0,16.389-13.145,29.616-29.269,29.616h-91.779
		c-16.124,0-29.368-13.227-29.368-29.616V216.791 M1237.118,459.557c0-16.422,13.244-29.683,29.368-29.683h91.779
		c16.124,0,29.269,13.26,29.269,29.683v95.446c0,16.339-13.145,29.724-29.269,29.724h-91.779c-16.124,0-29.368-13.385-29.368-29.724
		V459.557 M1237.118,702.473c0-16.356,13.244-29.716,29.368-29.716h91.779c16.124,0,29.269,13.36,29.269,29.716v95.554
		c0,16.19-13.145,29.55-29.269,29.55h-91.779c-16.124,0-29.368-13.36-29.368-29.55V702.473 M1237.118,945.248
		c0-16.422,13.244-29.732,29.368-29.732h91.779c16.124,0,29.269,13.31,29.269,29.732v95.537c0,16.29-13.145,29.567-29.269,29.567
		h-91.779c-16.124,0-29.368-13.277-29.368-29.567V945.248 M1237.118,1188.006c0-16.406,13.244-29.567,29.368-29.567h91.779
		c16.124,0,29.269,13.161,29.269,29.567v95.554c0,16.29-13.145,29.55-29.269,29.55h-91.779c-16.124,0-29.368-13.26-29.368-29.55
		V1188.006 M1237.118,1430.764c0-16.224,13.244-29.55,29.368-29.55h91.779c16.124,0,29.269,13.327,29.269,29.55v95.653
		c0,16.157-13.145,29.616-29.269,29.616h-91.779c-16.124,0-29.368-13.36-29.368-29.616V1430.764 M355.422,288.406
		c0-16.397,13.252-29.674,29.434-29.674h722.208c16.157,0,29.385,13.277,29.385,29.674v472.521c0,16.24-13.227,29.699-29.385,29.699
		H384.856c-16.182,0-29.434-13.459-29.434-29.699V288.406 M355.422,1017.062c0-16.24,13.252-29.5,29.434-29.5h722.208
		c16.157,0,29.385,13.26,29.385,29.5v436.895c0,16.306-13.227,29.616-29.385,29.616H384.856c-16.182,0-29.434-13.31-29.434-29.616
		V1017.062 M104.287,216.733c0-16.364,13.186-29.625,29.385-29.625h91.812c16.083,0,29.26,13.26,29.26,29.625v95.446
		c0,16.397-13.178,29.625-29.26,29.625h-91.812c-16.199,0-29.385-13.177-29.385-29.625V216.733 M104.287,459.508
		c0-16.373,13.186-29.633,29.385-29.633h91.812c16.083,0,29.26,13.26,29.26,29.633v95.438c0,16.397-13.178,29.732-29.26,29.732
		h-91.812c-16.199,0-29.385-13.335-29.385-29.732V459.508 M104.287,702.423c0-16.356,13.186-29.666,29.385-29.666h91.812
		c16.083,0,29.26,13.31,29.26,29.666v95.504c0,16.224-13.178,29.583-29.26,29.583h-91.812c-16.199,0-29.385-13.36-29.385-29.583
		V702.423 M104.287,945.248c0-16.422,13.186-29.732,29.385-29.732h91.812c16.083,0,29.26,13.31,29.26,29.732v95.421
		c0,16.356-13.178,29.616-29.26,29.616h-91.812c-16.199,0-29.385-13.26-29.385-29.616V945.248 M104.287,1188.006
		c0-16.406,13.186-29.633,29.385-29.633h91.812c16.083,0,29.26,13.178,29.26,29.633v95.554c0,16.224-13.178,29.484-29.26,29.484
		h-91.812c-16.199,0-29.385-13.26-29.385-29.484V1188.006 M104.287,1430.764c0-16.29,13.186-29.616,29.385-29.616h91.812
		c16.083,0,29.26,13.327,29.26,29.616v95.653c0,16.157-13.178,29.517-29.26,29.517h-91.812c-16.199,0-29.385-13.36-29.385-29.517
		V1430.764"/>
</g>
</svg>
